<?xml version="1.0" encoding="UTF-8" standalone="no"?>
<!-- Uploaded to: SVG Repo, www.svgrepo.com, Generator: SVG Repo Mixer Tools -->

<svg
   width="800"
   height="800"
   viewBox="0 0 24 24"
   fill="none"
   version="1.1"
   id="svg1"
   xmlns="http://www.w3.org/2000/svg"
   xmlns:svg="http://www.w3.org/2000/svg">
  <defs
     id="defs1" />
  <path
     style="fill:#ffffff;stroke-width:0.0296296"
     d="M 5.7041427,20.944035 C 4.940469,20.863224 4.3576845,20.584918 3.8589021,20.062848 3.4095801,19.592548 3.1956459,19.160946 3.0760944,18.483569 3.0322494,18.235145 3.026166,17.624101 3.0155274,12.4 3.0032178,6.3552573 3.0120408,5.7798879 3.1248789,5.2688733 3.2321415,4.7831094 3.4595235,4.3634283 3.8276265,3.9718062 4.3611213,3.4042248 4.9220685,3.1373595 5.758695,3.0531186 c 0.4231971,-0.042612 12.059413,-0.042612 12.48261,0 0.836626,0.084241 1.397573,0.3511062 1.931068,0.9186876 0.376712,0.4007808 0.614103,0.8484903 0.714073,1.3467123 0.09464,0.471675 0.104926,1.1264685 0.104926,6.6814815 0,5.555013 -0.01028,6.209806 -0.104926,6.681481 -0.189824,0.946028 -0.959705,1.812047 -1.879885,2.114634 -0.531255,0.174694 -0.06129,0.163085 -6.843598,0.169057 -3.5049723,0.0031 -6.3168618,-0.0061 -6.4588203,-0.02114 z m 9.8797223,-2.287366 c -0.587551,-0.606324 -4.3103,-4.295937 -4.517198,-4.476991 -0.333959,-0.292243 -0.414361,-0.327826 -0.740741,-0.327826 -0.256419,0 -0.294672,0.0076 -0.4296298,0.0856 -0.1423536,0.08226 -0.5734596,0.502006 -3.6086682,3.513618 -1.0697358,1.061419 -1.1181294,1.114156 -1.0828665,1.180045 0.050705,0.09474 0.2968113,0.270516 0.4319805,0.308527 0.2307453,0.06489 0.8563503,0.07374 5.517493,0.0781 l 4.783865,0.0045 z m 3.124438,0.06185 c 0.07007,-0.06926 0.152065,-0.174142 0.182204,-0.233072 0.07758,-0.151693 0.116841,-0.522229 0.117274,-1.106892 l 3.75e-4,-0.504481 -0.792967,-0.785358 c -0.904736,-0.896056 -0.953213,-0.93049 -1.311485,-0.931552 -0.122222,-3.63e-4 -0.271748,0.01667 -0.33228,0.03785 -0.135015,0.04725 -0.351181,0.213131 -0.675584,0.518438 l -0.246482,0.231974 1.449282,1.449508 c 0.797105,0.797229 1.456701,1.449507 1.46577,1.449507 0.0091,0 0.07382,-0.05667 0.143893,-0.125925 z M 6.9628056,14.01267 c 0.7823088,-0.775253 1.5157128,-1.479217 1.6297869,-1.564364 0.7385523,-0.551267 1.6614165,-0.719255 2.5448715,-0.46324 0.647342,0.187593 0.949868,0.416918 2.26166,1.714419 l 0.86579,0.856358 0.30458,-0.290362 c 0.581792,-0.554633 1.04976,-0.850025 1.578654,-0.996482 0.202293,-0.05602 0.310869,-0.06557 0.740741,-0.06518 0.460938,4.23e-4 0.526344,0.0073 0.77037,0.08048 0.146667,0.04401 0.360254,0.12559 0.474639,0.181281 0.213797,0.104092 0.625306,0.394585 0.752748,0.531382 0.03951,0.04241 0.08284,0.0771 0.0963,0.0771 0.03819,0 0.03084,-7.9498485 -0.0076,-8.2262622 C 18.928532,5.51127 18.829045,5.3413278 18.579268,5.1712455 18.475262,5.1004248 18.36638,5.0576475 18.222222,5.0309721 c -0.304597,-0.056364 -12.1398468,-0.056364 -12.4444443,0 -0.3420615,0.063297 -0.5951322,0.2753316 -0.7214265,0.6044463 -0.044705,0.1164978 -0.049646,0.5689467 -0.057048,5.2238406 l -0.0081,5.096296 0.2746137,-0.266666 C 5.4168501,15.542222 6.1804968,14.787924 6.9628056,14.01267 Z"
     id="path2" />
  <path
     style="fill:#ffffff;stroke-width:0.0296296"
     d="M 14.736655,11.965671 C 13.932121,11.90433 13.128764,11.46263 12.638587,10.812116 12.074255,10.063191 11.886599,9.153369 12.113504,8.2663266 c 0.132882,-0.5194782 0.362997,-0.9285744 0.750412,-1.3340778 1.044061,-1.0928058 2.720695,-1.218615 3.945065,-0.2960247 0.528047,0.3978954 0.8933,0.9533058 1.091709,1.6600722 0.04284,0.1526145 0.05415,0.3002262 0.05447,0.711111 4.68e-4,0.6084489 -0.04068,0.7981473 -0.279551,1.2888887 -0.170472,0.350216 -0.361225,0.609963 -0.641901,0.874074 -0.624157,0.587321 -1.418361,0.862296 -2.297049,0.795301 z m 0.691572,-2.0467152 c 0.210508,-0.096374 0.393111,-0.2786187 0.493315,-0.4923495 0.06707,-0.1430655 0.07829,-0.2060391 0.07733,-0.4340136 -9.93e-4,-0.2335455 -0.01178,-0.2879766 -0.08688,-0.4382364 -0.09517,-0.1904244 -0.268903,-0.366414 -0.4646,-0.4706226 -0.111114,-0.059168 -0.17174,-0.068644 -0.439983,-0.068771 -0.364881,-1.8e-4 -0.507575,0.052847 -0.723586,0.2688585 -0.216012,0.2160114 -0.269032,0.3587052 -0.268859,0.7235865 1.2e-4,0.2682423 0.0096,0.3288687 0.06877,0.4399827 0.140497,0.2638437 0.396469,0.4706655 0.670055,0.5413941 0.173104,0.044752 0.497534,0.011161 0.674438,-0.069829 z"
     id="path3" />
</svg>
