<?xml version="1.0" encoding="UTF-8" standalone="no"?>
<svg
   id="icon"
   viewBox="0 0 1024 1024"
   version="1.1"
   width="1024"
   height="1024"
   xmlns="http://www.w3.org/2000/svg"
   xmlns:svg="http://www.w3.org/2000/svg">
  <defs
     id="defs1">
    <style
       id="style1">.cls-1{fill:none;}</style>
  </defs>
  <title
     id="title1">watson-health--angle</title>
  <path
     d="M 288.00068,768.00225 A 112.32027,112.32033 0 0 0 259.84062,708.48207 L 564.80134,177.92052 509.4412,145.92042 203.20048,675.84197 a 97.920231,97.920287 0 0 0 -27.20007,-3.84 112.00027,112.00033 0 1 0 100.80024,160.00045 h 619.20147 v -64.00017 z m -112.00027,64.00017 a 48.000113,48.000141 0 1 1 48.00012,-48.00012 48.000113,48.000141 0 0 1 -48.00012,48.00012 z"
     id="path1"
     style="fill:#ffffff;stroke-width:32.0001" />
  <path
     d="m 704.00166,672.00197 h 64.00015 A 416.00098,416.00122 0 0 0 594.5614,334.08097 l -37.12007,51.84016 a 352.00083,352.00102 0 0 1 146.56033,286.08084 z"
     id="path2"
     style="fill:#ffffff;stroke-width:32.0001" />
  <rect
     id="_Transparent_Rectangle_"
     data-name="&lt;Transparent Rectangle&gt;"
     class="cls-1"
     width="1024.0026"
     height="1024.0029"
     x="0"
     y="0"
     style="stroke-width:32.0001" />
</svg>
