<?xml version="1.0" encoding="UTF-8" standalone="no"?>
<!-- Uploaded to: SVG Repo, www.svgrepo.com, Generator: SVG Repo Mixer Tools -->

<svg
   width="800"
   height="800"
   viewBox="0 0 24 24"
   fill="none"
   version="1.1"
   id="svg1"
   xmlns="http://www.w3.org/2000/svg"
   xmlns:svg="http://www.w3.org/2000/svg">
  <defs
     id="defs1" />
  <path
     style="fill:none;stroke-width:0.0296296"
     d="M 6.8697792,22.162647 C 6.5752176,22.1023 6.536205,22.066675 4.2036594,19.728099 1.6747495,17.19265 1.8350723,17.382153 1.839236,16.933333 1.8409274,16.751002 1.8573033,16.662105 1.9101914,16.548148 1.967102,16.425523 3.2173812,15.160664 9.1672515,9.20646 15.251899,3.1173813 16.380576,2.0005557 16.518518,1.9323862 c 0.142992,-0.070665 0.197459,-0.080488 0.444445,-0.080156 0.236598,3.183e-4 0.302742,0.011405 0.414815,0.069531 0.09177,0.047597 0.833249,0.7678825 2.378718,2.3107326 2.520934,2.516664 2.404133,2.3804937 2.40563,2.8045431 0.0016,0.4641852 0.732766,-0.3097443 -7.313727,7.7419001 -6.4562356,6.460369 -7.2224068,7.217475 -7.3817323,7.294399 -0.1975878,0.0954 -0.4111857,0.127357 -0.5968875,0.08931 z m 6.5523978,-8.74038 6.370274,-6.3703254 -1.421983,-1.4222139 -1.421982,-1.4222139 -0.718187,0.7177383 -0.718187,0.717738 0.427998,0.4314396 c 0.513933,0.5180658 0.562874,0.6029865 0.563304,0.9774222 2.4e-4,0.2162163 -0.01145,0.2757594 -0.08268,0.4208181 -0.104847,0.2135097 -0.326639,0.4154391 -0.548089,0.4990074 -0.134973,0.050934 -0.213614,0.061165 -0.39116,0.050888 -0.330309,-0.01912 -0.464155,-0.100406 -0.953456,-0.5790425 l -0.412417,-0.4034271 -0.716835,0.7168356 -0.716836,0.7168353 0.420762,0.422376 c 0.499858,0.5017752 0.581247,0.6397485 0.581247,0.9853389 0,0.6730784 -0.667156,1.1406394 -1.31358,0.9205914 -0.141722,-0.04824 -0.221975,-0.113637 -0.615722,-0.501714 L 11.301889,9.8541189 10.577371,10.578184 9.8528529,11.30225 10.28085,11.733689 c 0.51417,0.518304 0.563015,0.603103 0.563015,0.977422 0,0.298348 -0.0595,0.455185 -0.251847,0.663858 C 10.32885,13.660473 9.9013572,13.763366 9.5407407,13.628 9.3863976,13.570064 9.3060639,13.505234 8.9313198,13.136189 8.693916,12.902396 8.4871449,12.711111 8.4718287,12.711111 c -0.015316,0 -0.347232,0.319593 -0.7375911,0.710206 L 7.024494,14.131524 7.470732,14.58428 C 7.8588066,14.978024 7.9242,15.058278 7.9724436,15.2 8.1921057,15.845289 7.7271942,16.510388 7.0534554,16.514699 6.7106211,16.516892 6.5700618,16.433957 6.0665907,15.93241 L 5.6442924,15.511726 4.9332576,16.222298 c -0.3910695,0.390815 -0.7110354,0.723958 -0.7110354,0.740318 0,0.02928 2.7855984,2.829977 2.8147236,2.829977 0.00823,0 2.881581,-2.866647 6.3852312,-6.370326 z"
     id="path2" />
  <path
     style="fill:none;stroke-width:0.0296296"
     d="m 5.6517288,18.362841 -1.3999977,-1.40023 0.6957888,-0.695317 0.6957891,-0.695316 0.4079751,0.403011 c 0.2243862,0.221656 0.4652004,0.43185 0.5351424,0.467098 0.396636,0.199889 0.9206343,0.107098 1.2111555,-0.214474 0.1775535,-0.196531 0.2583861,-0.411409 0.2583861,-0.686872 0,-0.371362 -0.073603,-0.500984 -0.5675121,-0.999442 l -0.4053669,-0.409101 0.694374,-0.694846 0.694374,-0.694846 0.4307481,0.423957 c 0.509463,0.50143 0.5767278,0.537737 0.993711,0.53636 0.3187918,-0.0011 0.4855078,-0.06792 0.6972428,-0.279655 0.21607,-0.21607 0.279529,-0.377406 0.280075,-0.712057 6.51e-4,-0.397723 -0.04394,-0.477987 -0.551886,-0.993343 L 9.9121404,11.302202 10.607842,10.606973 11.303543,9.9117447 11.711031,10.3176 c 0.498124,0.496129 0.628727,0.57041 1.00008,0.568802 0.275562,-0.0012 0.491488,-0.08267 0.686872,-0.25919 C 13.718909,10.337275 13.81019,9.808827 13.608525,9.4083474 13.57544,9.3426453 13.367016,9.1053 13.145359,8.8809138 l -0.403011,-0.4079751 0.694374,-0.6948459 0.694374,-0.6948459 0.430748,0.4241955 c 0.373976,0.3682866 0.45418,0.4329846 0.608526,0.4908786 0.14582,0.054696 0.221015,0.064495 0.4183,0.054513 0.399808,-0.020229 0.671484,-0.1978602 0.860894,-0.5628816 0.07055,-0.1359624 0.08143,-0.1917906 0.08252,-0.4232859 0.0019,-0.3996654 -0.06339,-0.5182482 -0.562414,-1.0218675 l -0.39823,-0.4018965 0.69586,-0.6953874 0.69586,-0.6953877 1.399877,1.3998777 1.399878,1.3998774 -6.355594,6.3555945 -6.3555948,6.355594 z"
     id="path3" />
  <path
     style="fill:#ffffff;stroke-width:0.0296296"
     d="M 6.8697792,22.162647 C 6.5752176,22.1023 6.536205,22.066675 4.2036594,19.728099 1.6747495,17.19265 1.8350723,17.382153 1.839236,16.933333 1.8409274,16.751002 1.8573033,16.662105 1.9101914,16.548148 1.967102,16.425523 3.2173812,15.160664 9.1672515,9.20646 15.251899,3.1173813 16.380576,2.0005557 16.518518,1.9323862 c 0.142992,-0.070665 0.197459,-0.080488 0.444445,-0.080156 0.236598,3.183e-4 0.302742,0.011405 0.414815,0.069531 0.09177,0.047597 0.833249,0.7678825 2.378718,2.3107326 2.520934,2.516664 2.404133,2.3804937 2.40563,2.8045431 0.0016,0.4641852 0.732766,-0.3097443 -7.313727,7.7419001 -6.4562356,6.460369 -7.2224068,7.217475 -7.3817323,7.294399 -0.1975878,0.0954 -0.4111857,0.127357 -0.5968875,0.08931 z m 6.5523978,-8.74038 6.370274,-6.3703254 -1.421983,-1.4222139 -1.421982,-1.4222139 -0.718187,0.7177383 -0.718187,0.717738 0.427998,0.4314396 c 0.513933,0.5180658 0.562874,0.6029865 0.563304,0.9774222 2.4e-4,0.2162163 -0.01145,0.2757594 -0.08268,0.4208181 -0.104847,0.2135097 -0.326639,0.4154391 -0.548089,0.4990074 -0.134973,0.050934 -0.213614,0.061165 -0.39116,0.050888 -0.330309,-0.01912 -0.464155,-0.100406 -0.953456,-0.5790425 l -0.412417,-0.4034271 -0.716835,0.7168356 -0.716836,0.7168353 0.420762,0.422376 c 0.499858,0.5017752 0.581247,0.6397485 0.581247,0.9853389 0,0.6730784 -0.667156,1.1406394 -1.31358,0.9205914 -0.141722,-0.04824 -0.221975,-0.113637 -0.615722,-0.501714 L 11.301889,9.8541189 10.577371,10.578184 9.8528529,11.30225 10.28085,11.733689 c 0.51417,0.518304 0.563015,0.603103 0.563015,0.977422 0,0.298348 -0.0595,0.455185 -0.251847,0.663858 C 10.32885,13.660473 9.9013572,13.763366 9.5407407,13.628 9.3863976,13.570064 9.3060639,13.505234 8.9313198,13.136189 8.693916,12.902396 8.4871449,12.711111 8.4718287,12.711111 c -0.015316,0 -0.347232,0.319593 -0.7375911,0.710206 L 7.024494,14.131524 7.470732,14.58428 C 7.8588066,14.978024 7.9242,15.058278 7.9724436,15.2 8.1921057,15.845289 7.7271942,16.510388 7.0534554,16.514699 6.7106211,16.516892 6.5700618,16.433957 6.0665907,15.93241 L 5.6442924,15.511726 4.9332576,16.222298 c -0.3910695,0.390815 -0.7110354,0.723958 -0.7110354,0.740318 0,0.02928 2.7855984,2.829977 2.8147236,2.829977 0.00823,0 2.881581,-2.866647 6.3852312,-6.370326 z"
     id="path4" />
</svg>
