<?xml version="1.0" encoding="UTF-8" standalone="no"?>
<!-- Uploaded to: SVG Repo, www.svgrepo.com, Generator: SVG Repo Mixer Tools -->

<svg
   width="800"
   height="800"
   viewBox="0 0 24 24"
   fill="none"
   version="1.1"
   id="svg6"
   xmlns="http://www.w3.org/2000/svg"
   xmlns:svg="http://www.w3.org/2000/svg">
  <defs
     id="defs6" />
  <path
     d="m 7.99999,8.5 c 0,-0.55228 -0.44772,-1 -1,-1 -0.55229,0 -1,0.44772 -1,1 V 9 h -0.5 c -0.55229,0 -1,0.44771 -1,1 0,0.5523 0.44771,1 1,1 h 0.5 v 0.5 c 0,0.5523 0.44771,1 1,1 0.55228,0 1,-0.4477 1,-1 V 11 h 0.5 c 0.55228,0 1,-0.4477 1,-1 0,-0.55229 -0.44772,-1 -1,-1 h -0.5 z"
     id="path1"
     style="fill:#ffffff" />
  <path
     d="m 18,8 c 0,0.55229 -0.4477,1 -1,1 -0.5523,0 -1,-0.44771 -1,-1 0,-0.55228 0.4477,-1 1,-1 0.5523,0 1,0.44772 1,1 z"
     id="path2"
     style="fill:#ffffff" />
  <path
     d="m 17,13 c 0.5523,0 1,-0.4477 1,-1 0,-0.5523 -0.4477,-1 -1,-1 -0.5523,0 -1,0.4477 -1,1 0,0.5523 0.4477,1 1,1 z"
     id="path3"
     style="fill:#ffffff" />
  <path
     d="m 16,10 c 0,0.5523 -0.4477,1 -1,1 -0.5523,0 -1,-0.4477 -1,-1 0,-0.55229 0.4477,-1 1,-1 0.5523,0 1,0.44771 1,1 z"
     id="path4"
     style="fill:#ffffff" />
  <path
     d="m 19,11 c 0.5523,0 1,-0.4477 1,-1 0,-0.55229 -0.4477,-1 -1,-1 -0.5523,0 -1,0.44771 -1,1 0,0.5523 0.4477,1 1,1 z"
     id="path5"
     style="fill:#ffffff" />
  <path
     fill-rule="evenodd"
     clip-rule="evenodd"
     d="M 12,3 C 10.1879,3 7.96237,3.25817 6.21782,3.5093 3.94305,3.83676 2.09096,5.51696 1.60993,7.7883 1.34074,9.05935 1.07694,10.5622 1.01649,11.8204 c -0.043344,0.9021 -0.138509,2.1627 -0.239335,3.3719 -0.104899,1.2581 0.314325,2.5541 1.083635,3.4758 0.78504,0.9406 2.02836,1.5746 3.46286,1.1732 0.91849,-0.2571 1.65243,-0.9026 2.19685,-1.5387 0.55651,-0.6501 0.99942,-1.3902 1.31485,-1.9923 0.24286,-0.4636 0.67398,-0.7248 1.08004,-0.7248 h 4.16921 c 0.406,0 0.8372,0.2612 1.08,0.7248 0.3155,0.6021 0.7584,1.3422 1.3149,1.9923 0.5444,0.6361 1.2783,1.2816 2.1968,1.5387 1.4345,0.4014 2.6778,-0.2326 3.4629,-1.1732 0.7693,-0.9217 1.1885,-2.2177 1.0836,-3.4758 C 23.122,13.9831 23.0268,12.7225 22.9835,11.8204 22.923,10.5622 22.6592,9.05935 22.39,7.7883 21.909,5.51696 20.0569,3.83676 17.7821,3.5093 16.0376,3.25817 13.8121,3 12,3 Z M 6.50279,5.48889 C 8.22744,5.24063 10.3368,5 12,5 c 1.6632,0 3.7725,0.24063 5.4972,0.4889 1.4678,0.21129 2.6339,1.28599 2.9362,2.71377 0.2633,1.24298 0.4998,2.61963 0.5524,3.71373 0.0451,0.9396 0.1429,2.2299 0.2439,3.4421 0.0615,0.7371 -0.1955,1.5123 -0.626,2.0281 -0.4148,0.497 -0.8948,0.6668 -1.3884,0.5287 -0.3656,-0.1024 -0.7826,-0.4063 -1.2164,-0.9132 -0.4218,-0.4927 -0.7845,-1.089 -1.0627,-1.6199 -0.5319,-1.0155 -1.588,-1.7967 -2.8516,-1.7967 H 9.91539 c -1.26361,0 -2.31968,0.7812 -2.85165,1.7967 C 6.78558,15.9131 6.42285,16.5094 6.00109,17.0021 5.56723,17.509 5.15027,17.8129 4.78463,17.9153 4.29109,18.0534 3.81102,17.8836 3.39625,17.3866 2.96576,16.8708 2.70878,16.0956 2.77024,15.3585 2.87131,14.1463 2.96904,12.856 3.01418,11.9164 3.06675,10.8223 3.30329,9.44565 3.56653,8.20267 3.86891,6.77489 5.03497,5.70019 6.50279,5.48889 Z"
     id="path6"
     style="fill:#ffffff" />
</svg>
