<?xml version="1.0" encoding="UTF-8" standalone="no"?>
<!-- Uploaded to: SVG Repo, www.svgrepo.com, Generator: SVG Repo Mixer Tools -->

<svg
   fill="#000000"
   version="1.1"
   id="Capa_1"
   width="800"
   height="800"
   viewBox="0 0 305.836 305.836"
   xml:space="preserve"
   xmlns="http://www.w3.org/2000/svg"
   xmlns:svg="http://www.w3.org/2000/svg"><defs
   id="defs1" />
<g
   id="g1"
   style="fill:#ffffff">
	<path
   d="m 152.924,300.748 c 84.319,0 152.912,-68.6 152.912,-152.918 0,-39.476 -15.312,-77.231 -42.346,-105.564 0,0 3.938,-8.857 8.814,-19.783 4.864,-10.926 -2.138,-18.636 -15.648,-17.228 l -79.125,8.289 C 164.02,14.955 159.532,25.011 167.51,36.005 l 46.741,64.393 c 7.986,10.992 17.834,12.31 22.008,2.937 l 7.56,-16.964 c 12.172,18.012 18.976,39.329 18.976,61.459 0,60.594 -49.288,109.875 -109.87,109.875 -60.591,0 -109.882,-49.287 -109.882,-109.875 0,-19.086 4.96,-37.878 14.357,-54.337 C 63.291,83.168 59.7,70.026 49.375,64.136 39.047,58.24 25.911,61.836 20.015,72.167 6.923,95.107 0,121.27 0,147.829 0,232.148 68.602,300.748 152.924,300.748 Z"
   id="path1"
   style="fill:#ffffff" />
</g>
</svg>
