<?xml version="1.0" encoding="UTF-8" standalone="no"?>
<!-- Uploaded to: SVG Repo, www.svgrepo.com, Generator: SVG Repo Mixer Tools -->

<svg
   fill="#000000"
   height="800"
   width="800"
   version="1.1"
   id="Capa_1"
   viewBox="0 0 612 612"
   xml:space="preserve"
   xmlns="http://www.w3.org/2000/svg"
   xmlns:svg="http://www.w3.org/2000/svg"><defs
   id="defs8" />
<g
   id="g8">
	<g
   id="g7">
		<path
   d="m 175.205,239.62 c 0.127,-1.965 -0.533,-3.902 -1.833,-5.381 l -58.84,-66.941 c -1.3,-1.479 -3.135,-2.381 -5.102,-2.508 -1.975,-0.126 -3.902,0.533 -5.381,1.833 -27.037,23.766 -49.479,51.794 -66.706,83.305 -0.944,1.729 -1.165,3.762 -0.611,5.651 0.554,1.89 1.836,3.483 3.565,4.427 l 78.205,42.748 c 1.131,0.619 2.352,0.912 3.557,0.912 2.627,0 5.174,-1.398 6.523,-3.866 11.386,-20.828 26.229,-39.359 44.114,-55.08 1.482,-1.298 2.384,-3.133 2.509,-5.1 z"
   id="path1" />
		<path
   d="m 201.462,214.829 c 1.334,2.515 3.907,3.948 6.568,3.948 1.174,0 2.365,-0.279 3.473,-0.867 20.962,-11.117 43.512,-18.371 67.025,-21.561 4.064,-0.551 6.913,-4.293 6.362,-8.358 L 272.911,99.675 c -0.551,-4.064 -4.304,-6.909 -8.358,-6.362 -35.708,4.843 -69.949,15.857 -101.772,32.736 -3.623,1.922 -5.002,6.416 -3.082,10.041 z"
   id="path2" />
		<path
   d="M 105.785,334.345 19.768,311.007 c -1.901,-0.514 -3.929,-0.255 -5.638,0.725 -1.709,0.98 -2.958,2.598 -3.475,4.499 C 3.586,342.295 0,369.309 0,396.523 c 0,4.657 0.111,9.329 0.342,14.284 0.185,3.981 3.468,7.083 7.414,7.083 0.116,0 0.234,-0.002 0.35,-0.008 l 89.031,-4.113 c 1.967,-0.09 3.82,-0.96 5.145,-2.415 1.327,-1.455 2.022,-3.38 1.93,-5.347 -0.155,-3.341 -0.23,-6.444 -0.23,-9.484 0,-18.02 2.365,-35.873 7.029,-53.066 1.071,-3.958 -1.268,-8.037 -5.226,-9.112 z"
   id="path3" />
		<path
   d="M 438.731,120.745 C 406.32,105.12 371.691,95.437 335.806,91.959 c -1.972,-0.198 -3.918,0.408 -5.439,1.659 -1.521,1.252 -2.481,3.056 -2.671,5.018 l -8.593,88.712 c -0.396,4.082 2.594,7.713 6.677,8.108 23.652,2.291 46.463,8.669 67.8,18.954 1.015,0.49 2.118,0.738 3.225,0.738 0.826,0 1.654,-0.139 2.45,-0.416 1.859,-0.649 3.385,-2.012 4.24,-3.786 l 38.7,-80.287 c 1.783,-3.694 0.232,-8.134 -3.464,-9.914 z"
   id="path4" />
		<path
   d="m 569.642,245.337 c 0.48,-1.911 0.184,-3.932 -0.828,-5.624 -18.432,-30.835 -41.933,-57.983 -69.848,-80.686 -1.529,-1.242 -3.48,-1.824 -5.447,-1.627 -1.959,0.203 -3.758,1.174 -5,2.702 l -56.237,69.144 c -1.242,1.529 -1.828,3.488 -1.625,5.447 0.201,1.959 1.173,3.758 2.702,5.002 18.47,15.019 34.015,32.975 46.205,53.369 1.392,2.326 3.855,3.618 6.383,3.618 1.297,0 2.61,-0.34 3.803,-1.054 L 566.251,249.9 c 1.689,-1.011 2.909,-2.652 3.391,-4.563 z"
   id="path5" />
		<path
   d="m 598.044,304.939 c -1.228,-3.915 -5.397,-6.096 -9.308,-4.867 l -85.048,26.648 c -3.915,1.226 -6.093,5.393 -4.867,9.306 6.104,19.486 9.199,39.839 9.199,60.494 0,3.041 -0.076,6.144 -0.23,9.484 -0.092,1.967 0.602,3.892 1.93,5.347 1.327,1.456 3.178,2.325 5.145,2.415 l 89.031,4.113 c 0.118,0.005 0.234,0.008 0.35,0.008 3.944,0 7.228,-3.103 7.414,-7.083 0.229,-4.955 0.342,-9.627 0.342,-14.284 -0.002,-31.214 -4.696,-62.026 -13.958,-91.581 z"
   id="path6" />
		<path
   d="m 305.737,380.755 c -1.281,0 -2.555,0.042 -3.824,0.11 L 181.263,309.68 c -2.953,-1.745 -6.702,-1.308 -9.176,1.065 -2.476,2.371 -3.07,6.099 -1.456,9.121 l 65.815,123.355 c -0.242,2.376 -0.371,4.775 -0.371,7.195 0,18.608 7.246,36.101 20.403,49.258 13.158,13.158 30.652,20.404 49.26,20.404 18.608,0 36.101,-7.248 49.258,-20.404 13.158,-13.157 20.403,-30.65 20.403,-49.258 0,-18.608 -7.246,-36.101 -20.403,-49.258 -13.157,-13.157 -30.652,-20.403 -49.259,-20.403 z"
   id="path7"
   style="fill:#ffffff" />
	</g>
</g>
<path
   style="fill:#ffffff;stroke-width:0.755555"
   d="M 4.9700533,416.60635 C 0.52510431,414.73739 0.11874379,412.38024 0.62076203,391.37778 1.2290443,365.92964 3.4702641,347.89405 8.8323572,325.29729 c 2.5522348,-10.75555 4.5412078,-14.0084 8.5655038,-14.0084 1.113867,0 20.94502,5.14978 44.069231,11.44395 23.124214,6.29417 42.812748,11.60452 43.752298,11.80077 2.19089,0.45763 5.4695,4.33833 5.4695,6.47392 0,0.90593 -0.83939,5.38484 -1.86531,9.95314 -3.27323,14.57533 -4.25919,22.96904 -4.70317,40.03933 -0.23779,9.14222 -0.71197,17.36945 -1.05376,18.2827 -1.45729,3.89398 -1.51135,3.90105 -44.95923,5.87668 -22.401303,1.01862 -42.985391,1.98625 -45.742418,2.15031 -3.1160839,0.18542 -5.9141215,-0.0807 -7.3949487,-0.70334 z"
   id="path8" /><path
   style="fill:#ffffff;stroke-width:0.755555"
   d="M 80.08889,281.37066 C 57.128701,268.7994 39.936463,258.92287 38.722222,257.60649 c -1.142777,-1.2389 -2.077777,-3.03176 -2.077777,-3.98414 0,-3.5079 16.329913,-29.49436 27.859186,-44.33346 10.387602,-13.36968 24.286859,-28.35796 35.801169,-38.60624 5.05376,-4.49809 6.25356,-5.21598 8.71729,-5.21598 2.42024,0 3.38442,0.54857 6.3078,3.58888 9.98201,10.38129 58.87237,66.97855 59.28779,68.63373 0.75449,3.00617 -0.68238,5.16586 -8.14932,12.24884 -13.03842,12.36798 -25.81188,28.44658 -34.80404,43.8096 -2.50131,4.27347 -5.1617,8.09847 -5.91197,8.5 -3.61202,1.9331 -5.98123,0.8499 -45.66346,-20.87706 z"
   id="path9" /><path
   style="fill:#ffffff;stroke-width:0.755555"
   d="m 203.69636,216.27778 c -2.54037,-2.38152 -44.65192,-81.45296 -44.65192,-83.84141 0,-2.96469 3.24818,-5.60544 12.75344,-10.36854 25.01378,-12.53443 57.7495,-22.942527 85.99454,-27.341384 9.2979,-1.448045 11.2346,-1.127801 13.42845,2.220428 0.82194,1.254439 3.05305,15.553256 7.21774,46.257326 3.31543,24.4429 6.02806,45.22596 6.02806,46.18457 0,0.95862 -0.935,2.74771 -2.07778,3.97575 -1.87721,2.01728 -3.09987,2.41649 -12.66601,4.13567 -18.32059,3.29247 -37.60603,9.62791 -53.43001,17.55222 -3.6278,1.81674 -7.44744,3.30315 -8.48807,3.30315 -1.04064,0 -2.88944,-0.935 -4.10844,-2.07778 z"
   id="path10" /><path
   style="fill:#ffffff;stroke-width:0.755555"
   d="m 392.40518,213.43352 c -4.34589,-2.36102 -18.88058,-7.94789 -27.37171,-10.52116 -10.04011,-3.04268 -23.91267,-5.98905 -34.02765,-7.22705 -7.75322,-0.94894 -9.08802,-1.5087 -10.60836,-4.44872 -1.00134,-1.93638 -0.68086,-6.52375 3.35549,-48.032 3.41029,-35.07013 4.74777,-46.326451 5.67209,-47.737157 1.94196,-2.963809 4.39607,-3.479105 12.05952,-2.532204 32.48526,4.013917 64.43272,12.979151 91.56448,25.695231 7.7888,3.65045 9.32873,5.08076 9.32873,8.66459 0,2.79204 -38.88464,83.46377 -41.2518,85.58272 -2.18623,1.95702 -5.72629,2.18261 -8.72079,0.55575 z"
   id="path11" /><path
   style="fill:#ffffff;stroke-width:0.755555"
   d="m 482.62243,295.68116 c -0.51323,-0.20753 -3.7987,-4.68569 -7.30106,-9.95146 -10.90327,-16.39303 -23.84072,-31.18459 -37.18353,-42.51245 -6.38569,-5.42136 -7.64869,-7.43524 -6.79535,-10.83523 0.44336,-1.76649 55.61766,-70.43245 58.77626,-73.14869 2.98352,-2.56569 6.05861,-1.73002 12.46976,3.38869 8.23863,6.57781 30.38286,28.8074 38.45143,38.59967 7.9335,9.62834 17.91885,23.44135 23.9604,33.14504 4.63933,7.45152 5.33821,10.56912 2.98855,13.33137 -0.72722,0.85491 -19.02293,12.11258 -40.65713,25.01703 -38.75473,23.11658 -41.21352,24.3796 -44.70933,22.96603 z"
   id="path12" /><path
   style="fill:#ffffff;stroke-width:0.755555"
   d="m 565.53333,415.86564 c -54.7531,-2.59176 -52.62018,-2.41825 -55.01271,-4.47525 l -2.03173,-1.74681 -0.48363,-17.25512 c -0.27191,-9.7011 -1.02701,-20.72822 -1.72482,-25.18846 -1.46304,-9.35136 -4.60911,-23.72237 -6.14824,-28.08473 -1.4194,-4.02302 -1.37666,-7.03862 0.13239,-9.34172 1.37186,-2.09373 -0.95589,-1.29894 55.24229,-18.86191 33.55464,-10.48646 35.82693,-11.09319 38.06832,-10.16477 3.11781,1.29143 4.47717,4.44895 8.20377,19.05557 6.29765,24.68401 8.97126,44.60405 9.60665,71.57534 0.50148,21.2872 0.12425,23.35475 -4.62305,25.3383 -1.45605,0.60838 -2.91329,1.06424 -3.2383,1.01303 -0.32502,-0.0512 -17.42094,-0.88977 -37.99094,-1.86347 z"
   id="path13" /></svg>
