<?xml version="1.0" encoding="UTF-8" standalone="no"?>
<!-- Uploaded to: SVG Repo, www.svgrepo.com, Generator: SVG Repo Mixer Tools -->

<svg
   width="800"
   height="800"
   viewBox="0 0 24 24"
   fill="none"
   version="1.1"
   id="svg6"
   xmlns="http://www.w3.org/2000/svg"
   xmlns:svg="http://www.w3.org/2000/svg">
  <defs
     id="defs6" />
  <path
     style="fill:#ffffff;stroke-width:0.0296296"
     d="m 11.766741,14.682425 c -0.167313,-0.05964 -0.319073,-0.194538 -0.403645,-0.358794 l -0.07421,-0.144125 -0.01856,-1.92679 c -0.01721,-1.786653 -0.02315,-1.95265 -0.08167,-2.2823456 C 10.901937,8.355024 10.052671,6.9554289 8.7648132,5.975868 8.0928987,5.4648012 7.1378886,5.0413227 6.2074074,4.8418422 5.8558029,4.7664633 5.7845799,4.7617422 4.8017253,4.7486604 L 3.7664133,4.7348804 4.1613549,5.145218 C 4.6768125,5.6807697 4.7015904,5.718963 4.7032275,5.9804664 4.7053395,6.3175848 4.5692685,6.5273262 4.2663396,6.653898 4.1173485,6.7161504 3.8432103,6.7163325 3.7231728,6.654258 3.5128392,6.5454903 1.569459,4.6208307 1.3777994,4.3314777 1.3013512,4.216062 1.2888889,4.1695995 1.2888889,3.9999993 c 0,-0.1707606 0.012264,-0.215763 0.09133,-0.3351306 C 1.5726056,3.374418 3.5131409,1.454648 3.7263221,1.3438707 3.8802767,1.2638697 4.1578703,1.2811067 4.343612,1.3821997 4.6029461,1.523347 4.7027939,1.701996 4.7022674,2.0239093 4.7018504,2.2792988 4.6769044,2.3176592 4.163852,2.8518514 3.7754414,3.2562668 3.773294,3.259265 3.871469,3.2601047 c 0.054396,4.65e-4 0.5322348,0.013434 1.0618644,0.028819 1.0564647,0.03069 1.3055937,0.061724 2.0444445,0.2546769 0.9602664,0.2507763 2.0258682,0.781335 2.7951042,1.3916709 0.3493499,0.2771853 0.9331459,0.8506797 1.2065079,1.1852196 0.250283,0.3062958 0.690828,0.971217 0.857647,1.2944592 0.07333,0.1420971 0.146564,0.2541201 0.162734,0.2489406 0.01617,-0.00518 0.102983,-0.1416744 0.192915,-0.303321 C 12.3812,7.0217289 12.702771,6.5241531 12.899649,6.2666661 13.090789,6.0166833 13.817338,5.2770492 14.123147,5.0211327 14.840137,4.4211195 15.861493,3.8802552 16.8,3.6035916 17.601499,3.3673167 18.118215,3.3009528 19.384689,3.2716302 l 0.83654,-0.019368 -0.388763,-0.4039091 C 19.32334,2.3193909 19.2947,2.2752499 19.29605,2.0215877 c 0.0017,-0.32038 0.102354,-0.4989752 0.360338,-0.6393876 0.185742,-0.1010932 0.463335,-0.1183296 0.61729,-0.038329 0.213181,0.1107773 2.153717,2.0305473 2.346103,2.320998 0.07907,0.1193676 0.09133,0.16437 0.09133,0.3351306 0,0.1702473 -0.01235,0.2158977 -0.09024,0.3334902 -0.190281,0.2872716 -2.134585,2.2124547 -2.343576,2.3205279 -0.120506,0.062316 -0.394346,0.062256 -0.543632,-1.2e-4 -0.301046,-0.1257852 -0.438671,-0.3364932 -0.438671,-0.6716193 0,-0.2585637 0.02727,-0.300546 0.543961,-0.837378 l 0.395246,-0.4106547 -1.005987,0.01434 c -1.213231,0.017295 -1.420262,0.0459 -2.220805,0.3068351 -0.358664,0.1169061 -0.980687,0.4045101 -1.303703,0.6027909 -0.328153,0.2014341 -0.741654,0.5232345 -1.045107,0.8133375 -1.106269,1.0576005 -1.806564,2.5524828 -1.902789,4.0617837 -0.01558,0.244445 -0.02898,1.157778 -0.02976,2.02963 -0.0016,1.789212 0.0074,1.7148 -0.235707,1.950712 -0.198588,0.192723 -0.475306,0.257256 -0.7236,0.16875 z"
     id="path10" />
  <path
     style="fill:#ffffff;stroke-width:0.0296296"
     d="m 11.271303,17.312438 c -0.0051,-0.702765 -0.01064,-1.665523 0.748108,-1.665921 0.796239,-4.17e-4 0.74462,1.057146 0.747619,1.569805 0.0035,0.599727 0.07075,1.796401 -0.736544,1.833402 -0.830449,-0.0084 -0.767336,-1.025804 -0.759183,-1.737286 z"
     id="path11" />
  <path
     style="fill:#ffffff;stroke-width:0.0296296"
     d="m 11.272466,21.466136 c -0.0051,-0.702765 -0.01064,-1.665523 0.748108,-1.665921 0.796239,-4.17e-4 0.74462,1.057146 0.747619,1.569805 0.0035,0.599727 0.07075,1.796401 -0.736544,1.833402 -0.830449,-0.0084 -0.767336,-1.025804 -0.759183,-1.737286 z"
     id="path11-6" />
</svg>
